G04*
G04 #@! TF.GenerationSoftware,Altium Limited,Altium Designer,23.11.1 (41)*
G04*
G04 Layer_Physical_Order=1*
G04 Layer_Color=255*
%FSLAX44Y44*%
%MOMM*%
G71*
G04*
G04 #@! TF.SameCoordinates,9B078A48-8F01-46FD-BB7B-D1DAEF03546D*
G04*
G04*
G04 #@! TF.FilePolarity,Positive*
G04*
G01*
G75*
%ADD17R,1.6510X1.5240*%
%ADD18R,1.3970X1.2700*%
%ADD19R,1.2700X1.3970*%
%ADD20R,1.5240X1.6510*%
%ADD21O,0.5500X1.8000*%
%ADD34C,0.4400*%
%ADD35C,0.3400*%
%ADD36O,2.5400X1.7780*%
%ADD37R,2.5400X1.7780*%
%ADD38C,1.5240*%
%ADD39C,1.6000*%
%ADD40R,1.6000X1.6000*%
%ADD41O,1.7780X2.5400*%
%ADD42R,1.7780X2.5400*%
G36*
X411831Y95005D02*
X410660Y94513D01*
X407718Y97456D01*
Y154871D01*
X407350Y156720D01*
X406302Y158288D01*
X349810Y214781D01*
X349520Y216237D01*
X348472Y217805D01*
X341630Y224647D01*
X340062Y225695D01*
X338213Y226063D01*
X335915D01*
Y245110D01*
X319618D01*
X319200Y245193D01*
X310831D01*
X300728Y255296D01*
X301370Y257692D01*
Y260468D01*
X300652Y263148D01*
X299264Y265552D01*
X297302Y267514D01*
X294898Y268902D01*
X292218Y269620D01*
X289442D01*
X286762Y268902D01*
X284358Y267514D01*
X282396Y265552D01*
X281008Y263148D01*
X280629Y261733D01*
X277730D01*
X276076Y261404D01*
X274673Y260467D01*
X252966Y238760D01*
X228600D01*
Y231653D01*
X206375D01*
Y234950D01*
X187325D01*
Y230383D01*
X184473D01*
X184322Y230484D01*
X182668Y230813D01*
X175895D01*
Y242570D01*
X154305D01*
Y222250D01*
X170602D01*
X171020Y222167D01*
X181292D01*
X181443Y222066D01*
X183097Y221737D01*
X187325D01*
Y217170D01*
X206375D01*
Y223007D01*
X228600D01*
Y215900D01*
X252966D01*
X256457Y212409D01*
Y211180D01*
X255187Y210554D01*
X253414Y211914D01*
X250634Y213066D01*
X247650Y213459D01*
X245110D01*
Y201930D01*
Y190401D01*
X246780D01*
X247306Y189131D01*
X244848Y186673D01*
X244222Y186548D01*
X242819Y185611D01*
X228882Y171674D01*
X227945Y170272D01*
X227616Y168617D01*
Y166251D01*
X227401Y165964D01*
X226770Y165461D01*
X226417Y165320D01*
X224790Y165644D01*
X222726Y165233D01*
X220976Y164064D01*
X219807Y162314D01*
X219396Y160250D01*
Y147750D01*
X219604Y146706D01*
X218755Y145617D01*
X218125D01*
X217276Y146706D01*
X217484Y147750D01*
Y160250D01*
X217073Y162314D01*
X215904Y164064D01*
X214154Y165233D01*
X212090Y165644D01*
X210026Y165233D01*
X208276Y164064D01*
X207107Y162314D01*
X206696Y160250D01*
Y147750D01*
X206904Y146706D01*
X206055Y145617D01*
X205425D01*
X204576Y146706D01*
X204784Y147750D01*
Y160250D01*
X204373Y162314D01*
X203204Y164064D01*
X201454Y165233D01*
X199390Y165644D01*
X197326Y165233D01*
X195576Y164064D01*
X194407Y162314D01*
X193996Y160250D01*
Y149801D01*
X193015Y148996D01*
X192475Y149103D01*
X156845D01*
Y153670D01*
X137795D01*
Y151643D01*
X127635D01*
Y157480D01*
X106045D01*
Y137160D01*
X127635D01*
Y142997D01*
X137795D01*
Y135890D01*
X154152D01*
X154638Y134717D01*
X150731Y130810D01*
X137795D01*
Y119144D01*
X128808Y110157D01*
X127635Y110643D01*
Y124460D01*
X112159D01*
X104276Y132343D01*
X102873Y133280D01*
X101219Y133609D01*
X91532D01*
X90426Y135524D01*
X88534Y137416D01*
X86218Y138754D01*
X83634Y139446D01*
X80958D01*
X78374Y138754D01*
X76058Y137416D01*
X74166Y135524D01*
X72828Y133208D01*
X72136Y130624D01*
Y127948D01*
X72828Y125364D01*
X74166Y123048D01*
X76058Y121156D01*
X77973Y120050D01*
Y84722D01*
X70086Y76835D01*
X55880D01*
Y55245D01*
X61717D01*
Y38735D01*
X52070D01*
Y19685D01*
X69850D01*
Y32995D01*
X70034Y33271D01*
X70363Y34925D01*
Y55245D01*
X76200D01*
Y70721D01*
X85353Y79874D01*
X86290Y81277D01*
X86619Y82931D01*
Y120050D01*
X88534Y121156D01*
X90426Y123048D01*
X91532Y124963D01*
X99428D01*
X106045Y118346D01*
Y104140D01*
X121129D01*
X121254Y102870D01*
X120583Y102737D01*
X119181Y101799D01*
X101836Y84455D01*
X90170D01*
Y65405D01*
X94737D01*
Y60325D01*
X85090D01*
Y38735D01*
X90927D01*
Y33655D01*
X82550D01*
Y12065D01*
X102870D01*
Y33655D01*
X99573D01*
Y38735D01*
X105410D01*
Y60325D01*
X103383D01*
Y65405D01*
X107950D01*
Y78341D01*
X111857Y82248D01*
X113030Y81762D01*
Y65405D01*
X117597D01*
Y56515D01*
X117926Y54861D01*
X118110Y54585D01*
Y38735D01*
X138430D01*
Y54211D01*
X179964Y95745D01*
X181137Y95259D01*
Y87980D01*
X181466Y86326D01*
X182403Y84923D01*
X188077Y79250D01*
Y76840D01*
X188406Y75186D01*
X189343Y73783D01*
X205740Y57386D01*
Y33020D01*
X228600D01*
Y60867D01*
X233312D01*
X233939Y59597D01*
X232586Y57834D01*
X231434Y55054D01*
X231041Y52070D01*
Y44450D01*
X231434Y41466D01*
X232586Y38686D01*
X234418Y36298D01*
X236806Y34466D01*
X239586Y33314D01*
X242570Y32921D01*
X245554Y33314D01*
X248334Y34466D01*
X250722Y36298D01*
X252554Y38686D01*
X253706Y41466D01*
X253906Y42984D01*
X255247Y43440D01*
X263525Y35161D01*
Y20320D01*
X284277D01*
X287354Y17243D01*
X288922Y16195D01*
X290772Y15827D01*
X327718D01*
X329568Y16195D01*
X331136Y17243D01*
X341532Y27639D01*
X342580Y29207D01*
X342948Y31057D01*
Y51140D01*
X342580Y52990D01*
X341532Y54557D01*
X339866Y56224D01*
X340352Y57397D01*
X346211D01*
X348061Y57765D01*
X348288Y57917D01*
X370532D01*
X370759Y57765D01*
X372609Y57397D01*
X374015D01*
X375864Y57765D01*
X377432Y58813D01*
X385930Y67310D01*
X400685D01*
Y87630D01*
X379095D01*
Y74145D01*
X372459Y67509D01*
X372089Y67583D01*
X370205D01*
Y76200D01*
X359410D01*
X348615D01*
Y67583D01*
X346731D01*
X344882Y67215D01*
X344654Y67063D01*
X335915D01*
Y71120D01*
X316865D01*
Y66553D01*
X311785D01*
Y76200D01*
X296309D01*
X280614Y91894D01*
X280984Y93750D01*
Y106250D01*
X280573Y108314D01*
X279404Y110064D01*
X277654Y111233D01*
X275590Y111644D01*
X273526Y111233D01*
X271776Y110064D01*
X270607Y108314D01*
X270196Y106250D01*
Y93750D01*
X270607Y91686D01*
X271756Y89967D01*
X271998Y88749D01*
X272935Y87346D01*
X285518Y74763D01*
X284825Y73660D01*
X270274D01*
X267213Y76721D01*
Y90698D01*
X267873Y91686D01*
X268284Y93750D01*
Y106250D01*
X267873Y108314D01*
X266704Y110064D01*
X266610Y111020D01*
X270137Y114547D01*
X290195D01*
Y110490D01*
X309245D01*
Y121435D01*
X314717Y126907D01*
X321605D01*
X322072Y127000D01*
X337185D01*
Y132837D01*
X353060D01*
Y129540D01*
X383540D01*
Y152400D01*
X353060D01*
Y141483D01*
X339121D01*
X338635Y142656D01*
X341942Y145963D01*
X342879Y147366D01*
X343208Y149020D01*
Y179556D01*
X342879Y181211D01*
X341942Y182613D01*
X335998Y188557D01*
Y196010D01*
X335915Y196427D01*
Y212090D01*
X314325D01*
Y191770D01*
X327352D01*
Y186766D01*
X327681Y185112D01*
X328618Y183709D01*
X330814Y181513D01*
X330328Y180340D01*
X327660D01*
Y170180D01*
Y160020D01*
X334562D01*
Y150811D01*
X331071Y147320D01*
X315595D01*
Y136573D01*
X312715D01*
X310865Y136205D01*
X310515Y135971D01*
X309245Y136650D01*
Y140970D01*
X300990D01*
Y133350D01*
X305831D01*
X306317Y132177D01*
X302410Y128270D01*
X290195D01*
Y124213D01*
X268135D01*
X266286Y123845D01*
X264718Y122797D01*
X260494Y118573D01*
X259788D01*
X257938Y118205D01*
X256370Y117157D01*
X253058Y113845D01*
X251448Y113525D01*
X249880Y112477D01*
X248763Y111360D01*
X248126Y111233D01*
X246376Y110064D01*
X245207Y108314D01*
X244796Y106250D01*
Y93750D01*
X245207Y91686D01*
X246376Y89936D01*
X248126Y88767D01*
X250190Y88356D01*
X252254Y88767D01*
X254004Y89936D01*
X255173Y91686D01*
X255584Y93750D01*
Y103348D01*
X256297Y103716D01*
X257496Y102946D01*
Y93750D01*
X257907Y91686D01*
X258567Y90698D01*
Y74930D01*
X258896Y73276D01*
X259833Y71873D01*
X263525Y68181D01*
Y60211D01*
X262352Y59725D01*
X252959Y69117D01*
X251391Y70165D01*
X249542Y70533D01*
X218850D01*
X201752Y87630D01*
X202028Y89150D01*
X203204Y89936D01*
X204373Y91686D01*
X204784Y93750D01*
Y106250D01*
X204569Y107331D01*
X205412Y108396D01*
X206057Y108379D01*
X206900Y107276D01*
X206696Y106250D01*
Y93750D01*
X207107Y91686D01*
X208276Y89936D01*
X210026Y88767D01*
X212090Y88356D01*
X214154Y88767D01*
X215904Y89936D01*
X217073Y91686D01*
X217484Y93750D01*
Y106250D01*
X217281Y107269D01*
X218135Y108362D01*
X218745D01*
X219599Y107269D01*
X219396Y106250D01*
Y93750D01*
X219807Y91686D01*
X220976Y89936D01*
X222726Y88767D01*
X224790Y88356D01*
X226854Y88767D01*
X228604Y89936D01*
X229773Y91686D01*
X230184Y93750D01*
Y106250D01*
X229981Y107269D01*
X230835Y108362D01*
X231445D01*
X232299Y107269D01*
X232096Y106250D01*
Y101270D01*
X242884D01*
Y106250D01*
X242473Y108314D01*
X241304Y110064D01*
X242084Y111009D01*
X248353Y117278D01*
X248674Y117342D01*
X249237Y117718D01*
X250530Y117975D01*
X252098Y119023D01*
X256123Y123047D01*
X258420D01*
X260270Y123415D01*
X261838Y124463D01*
X265302Y127927D01*
X271192D01*
X273042Y128295D01*
X274610Y129343D01*
X286497Y141230D01*
X287545Y142798D01*
X287913Y144648D01*
Y167927D01*
X287545Y169776D01*
X286680Y171070D01*
X287119Y172340D01*
X289560D01*
Y182880D01*
Y193420D01*
X282923D01*
Y199622D01*
X284096Y200108D01*
X284358Y199846D01*
X286762Y198458D01*
X289442Y197740D01*
X292218D01*
X294898Y198458D01*
X297302Y199846D01*
X299264Y201808D01*
X300652Y204212D01*
X301370Y206892D01*
Y209668D01*
X300880Y211495D01*
X305782Y216397D01*
X336211D01*
X340300Y212308D01*
X340590Y210851D01*
X341638Y209283D01*
X371752Y179169D01*
X371226Y177899D01*
X369570D01*
Y166370D01*
Y154841D01*
X372110D01*
X375094Y155234D01*
X377874Y156386D01*
X380262Y158218D01*
X382094Y160606D01*
X383246Y163386D01*
X383536Y165589D01*
X384877Y166044D01*
X398052Y152869D01*
Y95454D01*
X398420Y93604D01*
X399468Y92036D01*
X403992Y87512D01*
Y67428D01*
X399468Y62904D01*
X398420Y61336D01*
X398052Y59486D01*
Y58812D01*
X393850Y54610D01*
X379095D01*
Y48773D01*
X370205D01*
Y54610D01*
X348615D01*
Y34290D01*
X370205D01*
Y40127D01*
X379095D01*
Y34290D01*
X400685D01*
Y47775D01*
X406302Y53393D01*
X407350Y54960D01*
X407718Y56810D01*
Y57484D01*
X410974Y60741D01*
X412150Y60260D01*
X412636Y7277D01*
X411745Y6372D01*
X5092Y3900D01*
X2631Y272089D01*
X3525Y272991D01*
X410198D01*
X411831Y95005D01*
D02*
G37*
%LPC*%
G36*
X125730Y245209D02*
X123190D01*
Y234950D01*
X137091D01*
X136866Y236664D01*
X135714Y239444D01*
X133882Y241832D01*
X131494Y243664D01*
X128714Y244816D01*
X125730Y245209D01*
D02*
G37*
G36*
X120650D02*
X118110D01*
X115126Y244816D01*
X112346Y243664D01*
X109958Y241832D01*
X108126Y239444D01*
X106974Y236664D01*
X106749Y234950D01*
X120650D01*
Y245209D01*
D02*
G37*
G36*
X56515Y240030D02*
X48260D01*
Y232410D01*
X56515D01*
Y240030D01*
D02*
G37*
G36*
X45720D02*
X37465D01*
Y232410D01*
X45720D01*
Y240030D01*
D02*
G37*
G36*
X56515Y229870D02*
X48260D01*
Y222250D01*
X56515D01*
Y229870D01*
D02*
G37*
G36*
X45720D02*
X37465D01*
Y222250D01*
X45720D01*
Y229870D01*
D02*
G37*
G36*
X137091Y232410D02*
X123190D01*
Y222151D01*
X125730D01*
X128714Y222544D01*
X131494Y223696D01*
X133882Y225528D01*
X135714Y227916D01*
X136866Y230696D01*
X137091Y232410D01*
D02*
G37*
G36*
X120650D02*
X106749D01*
X106974Y230696D01*
X108126Y227916D01*
X109958Y225528D01*
X112346Y223696D01*
X115126Y222544D01*
X118110Y222151D01*
X120650D01*
Y232410D01*
D02*
G37*
G36*
X206375Y212090D02*
X198120D01*
Y204470D01*
X206375D01*
Y212090D01*
D02*
G37*
G36*
X195580D02*
X187325D01*
Y204470D01*
X195580D01*
Y212090D01*
D02*
G37*
G36*
X242570Y213459D02*
X240030D01*
X237046Y213066D01*
X234266Y211914D01*
X231878Y210082D01*
X230046Y207694D01*
X228894Y204914D01*
X228669Y203200D01*
X242570D01*
Y213459D01*
D02*
G37*
G36*
X56515Y217170D02*
X37465D01*
Y199390D01*
X42667D01*
Y165100D01*
X42996Y163446D01*
X43933Y162043D01*
X47562Y158414D01*
X46990Y156278D01*
Y153602D01*
X47682Y151018D01*
X49020Y148702D01*
X50912Y146810D01*
X53228Y145472D01*
X55812Y144780D01*
X58488D01*
X61072Y145472D01*
X63388Y146810D01*
X65280Y148702D01*
X66618Y151018D01*
X67310Y153602D01*
Y156278D01*
X66618Y158862D01*
X65280Y161178D01*
X63388Y163070D01*
X61072Y164408D01*
X58488Y165100D01*
X55812D01*
X53676Y164528D01*
X51313Y166891D01*
Y199390D01*
X56515D01*
Y201417D01*
X64135D01*
Y195580D01*
X85725D01*
Y215900D01*
X64135D01*
Y210063D01*
X56515D01*
Y217170D01*
D02*
G37*
G36*
X206375Y201930D02*
X198120D01*
Y194310D01*
X206375D01*
Y201930D01*
D02*
G37*
G36*
X195580D02*
X187325D01*
Y194310D01*
X195580D01*
Y201930D01*
D02*
G37*
G36*
X242570Y200660D02*
X228669D01*
X228894Y198946D01*
X230046Y196166D01*
X231878Y193778D01*
X234266Y191946D01*
X237046Y190794D01*
X240030Y190401D01*
X242570D01*
Y200660D01*
D02*
G37*
G36*
X85725Y248920D02*
X64135D01*
Y228600D01*
X78976D01*
X102353Y205223D01*
X103756Y204286D01*
X105410Y203957D01*
X106680D01*
Y196850D01*
X131046D01*
X131563Y196333D01*
X132966Y195396D01*
X134620Y195067D01*
X154305D01*
Y189230D01*
X175895D01*
Y209550D01*
X154305D01*
Y203713D01*
X137160D01*
Y219710D01*
X106680D01*
Y214783D01*
X105507Y214297D01*
X85725Y234079D01*
Y248920D01*
D02*
G37*
G36*
X301370Y193420D02*
X292100D01*
Y184150D01*
X301370D01*
Y193420D01*
D02*
G37*
G36*
Y181610D02*
X292100D01*
Y172340D01*
X301370D01*
Y181610D01*
D02*
G37*
G36*
X325120Y180340D02*
X315595D01*
Y171450D01*
X325120D01*
Y180340D01*
D02*
G37*
G36*
X367030Y177899D02*
X364490D01*
X361506Y177506D01*
X358726Y176354D01*
X356338Y174522D01*
X354506Y172134D01*
X353354Y169354D01*
X353129Y167640D01*
X367030D01*
Y177899D01*
D02*
G37*
G36*
X325120Y168910D02*
X315595D01*
Y160020D01*
X325120D01*
Y168910D01*
D02*
G37*
G36*
X367030Y165100D02*
X353129D01*
X353354Y163386D01*
X354506Y160606D01*
X356338Y158218D01*
X358726Y156386D01*
X361506Y155234D01*
X364490Y154841D01*
X367030D01*
Y165100D01*
D02*
G37*
G36*
X309245Y151130D02*
X300990D01*
Y143510D01*
X309245D01*
Y151130D01*
D02*
G37*
G36*
X298450D02*
X290195D01*
Y143510D01*
X298450D01*
Y151130D01*
D02*
G37*
G36*
Y140970D02*
X290195D01*
Y133350D01*
X298450D01*
Y140970D01*
D02*
G37*
G36*
X58742Y114046D02*
X58674D01*
Y105156D01*
X67564D01*
Y105224D01*
X66872Y107808D01*
X65534Y110124D01*
X63642Y112016D01*
X61326Y113354D01*
X58742Y114046D01*
D02*
G37*
G36*
X56134D02*
X56066D01*
X53482Y113354D01*
X51166Y112016D01*
X49274Y110124D01*
X47936Y107808D01*
X47244Y105224D01*
Y105156D01*
X56134D01*
Y114046D01*
D02*
G37*
G36*
X67564Y102616D02*
X58674D01*
Y93726D01*
X58742D01*
X61326Y94418D01*
X63642Y95756D01*
X65534Y97648D01*
X66872Y99964D01*
X67564Y102548D01*
Y102616D01*
D02*
G37*
G36*
X56134D02*
X47244D01*
Y102548D01*
X47936Y99964D01*
X49274Y97648D01*
X51166Y95756D01*
X53482Y94418D01*
X56066Y93726D01*
X56134D01*
Y102616D01*
D02*
G37*
G36*
X242884Y98730D02*
X238760D01*
Y88609D01*
X239554Y88767D01*
X241304Y89936D01*
X242473Y91686D01*
X242884Y93750D01*
Y98730D01*
D02*
G37*
G36*
X236220D02*
X232096D01*
Y93750D01*
X232507Y91686D01*
X233676Y89936D01*
X235426Y88767D01*
X236220Y88609D01*
Y98730D01*
D02*
G37*
G36*
X370205Y87630D02*
X360680D01*
Y78740D01*
X370205D01*
Y87630D01*
D02*
G37*
G36*
X358140D02*
X348615D01*
Y78740D01*
X358140D01*
Y87630D01*
D02*
G37*
G36*
X43180Y76835D02*
X34290D01*
Y67310D01*
X43180D01*
Y76835D01*
D02*
G37*
G36*
X31750D02*
X22860D01*
Y67310D01*
X31750D01*
Y76835D01*
D02*
G37*
G36*
X175260Y71219D02*
X172720D01*
Y60960D01*
X186621D01*
X186396Y62674D01*
X185244Y65454D01*
X183412Y67842D01*
X181024Y69674D01*
X178244Y70826D01*
X175260Y71219D01*
D02*
G37*
G36*
X170180D02*
X167640D01*
X164656Y70826D01*
X161876Y69674D01*
X159488Y67842D01*
X157656Y65454D01*
X156504Y62674D01*
X156279Y60960D01*
X170180D01*
Y71219D01*
D02*
G37*
G36*
X43180Y64770D02*
X34290D01*
Y55245D01*
X43180D01*
Y64770D01*
D02*
G37*
G36*
X31750D02*
X22860D01*
Y55245D01*
X31750D01*
Y64770D01*
D02*
G37*
G36*
X186621Y58420D02*
X172720D01*
Y48161D01*
X175260D01*
X178244Y48554D01*
X181024Y49706D01*
X183412Y51538D01*
X185244Y53926D01*
X186396Y56706D01*
X186621Y58420D01*
D02*
G37*
G36*
X170180D02*
X156279D01*
X156504Y56706D01*
X157656Y53926D01*
X159488Y51538D01*
X161876Y49706D01*
X164656Y48554D01*
X167640Y48161D01*
X170180D01*
Y58420D01*
D02*
G37*
G36*
X46990Y38735D02*
X39370D01*
Y30480D01*
X46990D01*
Y38735D01*
D02*
G37*
G36*
X36830D02*
X29210D01*
Y30480D01*
X36830D01*
Y38735D01*
D02*
G37*
G36*
X186690Y45720D02*
X156210D01*
Y28974D01*
X154419Y27183D01*
X135890D01*
Y33655D01*
X115570D01*
Y12065D01*
X135890D01*
Y18537D01*
X156210D01*
X157864Y18866D01*
X159267Y19803D01*
X162324Y22860D01*
X186690D01*
Y45720D01*
D02*
G37*
G36*
X46990Y27940D02*
X39370D01*
Y19685D01*
X46990D01*
Y27940D01*
D02*
G37*
G36*
X36830D02*
X29210D01*
Y19685D01*
X36830D01*
Y27940D01*
D02*
G37*
%LPD*%
D17*
X165100Y232410D02*
D03*
Y199390D02*
D03*
X74930Y238760D02*
D03*
Y205740D02*
D03*
X359410Y44450D02*
D03*
Y77470D02*
D03*
X389890D02*
D03*
Y44450D02*
D03*
X274320Y63500D02*
D03*
Y30480D02*
D03*
X300990Y33020D02*
D03*
Y66040D02*
D03*
X325120Y201930D02*
D03*
Y234950D02*
D03*
X116840Y147320D02*
D03*
Y114300D02*
D03*
X326390Y137160D02*
D03*
Y170180D02*
D03*
D18*
X196850Y203200D02*
D03*
Y226060D02*
D03*
X46990Y231140D02*
D03*
Y208280D02*
D03*
X147320Y144780D02*
D03*
Y121920D02*
D03*
X326390Y39370D02*
D03*
Y62230D02*
D03*
X299720Y142240D02*
D03*
Y119380D02*
D03*
D19*
X121920Y74930D02*
D03*
X99060D02*
D03*
X38100Y29210D02*
D03*
X60960D02*
D03*
D20*
X92710Y22860D02*
D03*
X125730D02*
D03*
X128270Y49530D02*
D03*
X95250D02*
D03*
X66040Y66040D02*
D03*
X33020D02*
D03*
D21*
X275590Y154000D02*
D03*
X262890D02*
D03*
X250190D02*
D03*
X237490D02*
D03*
X224790D02*
D03*
X212090D02*
D03*
X199390D02*
D03*
X275590Y100000D02*
D03*
X262890D02*
D03*
X250190D02*
D03*
X237490D02*
D03*
X224790D02*
D03*
X212090D02*
D03*
X199390D02*
D03*
D34*
X365965Y83390D02*
X385740Y103165D01*
X372609Y62230D02*
X374015D01*
X327025D02*
X346211D01*
X346731Y62750D02*
X372089D01*
X372609Y62230D01*
X402885Y56810D02*
Y59486D01*
Y95454D02*
X408825Y89514D01*
X402885Y95454D02*
Y154871D01*
Y59486D02*
X408825Y65426D01*
Y89514D01*
X346211Y62230D02*
X346731Y62750D01*
X374015Y62230D02*
X389255Y77470D01*
X389890Y44450D02*
X390525D01*
X402885Y56810D01*
X338115Y31057D02*
Y51140D01*
X327025Y62230D02*
X338115Y51140D01*
X290772Y20660D02*
X327718D01*
X338115Y31057D01*
X250190Y100000D02*
Y105952D01*
X253298Y109060D01*
X255108D02*
X259788Y113740D01*
X262495D01*
X237980D02*
X246047Y121807D01*
X246825D01*
X263300Y132760D02*
X271192D01*
X247458Y122440D02*
X248681D01*
X254121Y127880D01*
X253298Y109060D02*
X255108D01*
X262495Y113740D02*
X268135Y119380D01*
X254121Y127880D02*
X258420D01*
X271192Y132760D02*
X283080Y144648D01*
X206102Y113740D02*
X237980D01*
X268135Y119380D02*
X299720D01*
X258420Y127880D02*
X263300Y132760D01*
X246825Y121807D02*
X247458Y122440D01*
X299720Y119380D02*
X300355D01*
X283080Y144648D02*
Y167927D01*
X300355Y119380D02*
X312715Y131740D01*
X321605D01*
X327025Y137160D01*
X191900Y90648D02*
X216848Y65700D01*
X191900Y90648D02*
Y109352D01*
X196288Y113740D01*
X216848Y65700D02*
X249542D01*
X314902Y214290D02*
X335338D01*
X338115Y192745D02*
Y211513D01*
X303780Y221230D02*
X338213D01*
X335338Y214290D02*
X338115Y211513D01*
X338213Y221230D02*
X345055Y214388D01*
X312125Y211513D02*
X314902Y214290D01*
X290830Y208280D02*
X303780Y221230D01*
X278090Y172917D02*
Y220940D01*
X290830Y150495D02*
X299085Y142240D01*
X290830Y150495D02*
Y182880D01*
X313055D02*
X320335Y175600D01*
X312125Y192347D02*
X315591Y188881D01*
X312125Y192347D02*
Y211513D01*
X320335Y175600D02*
Y185415D01*
X325755Y170180D02*
X326390D01*
X315591Y188881D02*
X316869D01*
X320335Y175600D02*
X325755Y170180D01*
X345055Y212701D02*
Y214388D01*
X338115Y192745D02*
X364490Y166370D01*
X345055Y212701D02*
X402885Y154871D01*
X316869Y188881D02*
X320335Y185415D01*
X364490Y166370D02*
X368300D01*
X290830Y182880D02*
X313055D01*
X196215Y203200D02*
X196850D01*
X179365Y220050D02*
X196215Y203200D01*
X154882Y220050D02*
X179365D01*
X141252Y233680D02*
X154882Y220050D01*
X121920Y233680D02*
X141252D01*
X47625Y231140D02*
X58243Y241758D01*
Y244652D01*
X64712Y251120D01*
X100670D02*
X118110Y233680D01*
X121920D01*
X46990Y231140D02*
X47625D01*
X64712Y251120D02*
X100670D01*
X326390Y62230D02*
X327025D01*
X287315Y24117D02*
X290772Y20660D01*
X287315Y24117D02*
Y40063D01*
X276238Y51140D02*
X287315Y40063D01*
X264102Y51140D02*
X276238D01*
X249542Y65700D02*
X264102Y51140D01*
X196288Y113740D02*
X206102D01*
X206102Y113740D01*
X278090Y172917D02*
X283080Y167927D01*
X278090Y220940D02*
X290830Y233680D01*
X372110Y166370D02*
X385740Y152740D01*
X368300Y166370D02*
X372110D01*
X385740Y103165D02*
Y152740D01*
X389255Y77470D02*
X389890D01*
D35*
X365965Y83390D02*
X373939D01*
X365330D02*
X365965D01*
X220730Y14220D02*
X330386D01*
X175260Y59690D02*
X220730Y14220D01*
X379359Y55790D02*
X379879Y56310D01*
Y89330D02*
X399901D01*
X373939Y83390D02*
X379879Y89330D01*
X330386Y14220D02*
X344555Y28389D01*
X399901Y89330D02*
X402385Y86846D01*
X379879Y56310D02*
X390601D01*
X359410Y77470D02*
X365330Y83390D01*
X369941Y55790D02*
X379359D01*
X369421Y56310D02*
X369941Y55790D01*
X349399Y56310D02*
X369421D01*
X171450Y59690D02*
X175260D01*
X275992Y90403D02*
X300355Y66040D01*
X390601Y56310D02*
X402385Y68094D01*
X344555Y51466D02*
X349399Y56310D01*
X344555Y28389D02*
Y51466D01*
X402385Y68094D02*
Y86846D01*
X359410Y44450D02*
X389890D01*
X156210Y22860D02*
X167640Y34290D01*
X171450D01*
X125730Y22860D02*
X156210D01*
X198120Y201930D02*
X243840D01*
X196850Y203200D02*
X198120Y201930D01*
X240030Y227330D02*
X247650D01*
X260780Y196491D02*
Y214200D01*
X247650Y227330D02*
X260780Y214200D01*
X245876Y182554D02*
X246843D01*
X260780Y196491D01*
X231939Y168617D02*
X245876Y182554D01*
X231939Y165801D02*
Y168617D01*
X236804Y154686D02*
Y160936D01*
X231939Y165801D02*
X236804Y160936D01*
Y154686D02*
X237490Y154000D01*
X50370Y20469D02*
Y27218D01*
Y20469D02*
X60474Y10365D01*
X102086D01*
X38100Y29210D02*
X48378D01*
X102086Y10365D02*
X110060Y18339D01*
Y29061D01*
X118034Y37035D01*
X144985D01*
X48378Y29210D02*
X50370Y27218D01*
X144985Y37035D02*
X167640Y59690D01*
X171450D01*
X35765Y125525D02*
X57404Y103886D01*
X35765Y125525D02*
Y220550D01*
X46355Y231140D01*
X46990D01*
X33020Y66040D02*
Y79502D01*
X57404Y103886D01*
X261088Y121440D02*
X265968Y126320D01*
X294435Y137590D02*
X299085Y142240D01*
X249625Y115500D02*
X250848D01*
X256788Y121440D02*
X261088D01*
X238460Y106652D02*
X239999D01*
X247087Y113740D01*
X237490Y105682D02*
X238460Y106652D01*
X247087Y113740D02*
X247865D01*
X259712Y145140D02*
X262890Y148318D01*
X250848Y115500D02*
X256788Y121440D01*
X255753Y134320D02*
X260633Y139200D01*
X250746Y134320D02*
X255753D01*
X237490Y100000D02*
Y105682D01*
X257465Y145140D02*
X259712D01*
X253085Y140760D02*
X257465Y145140D01*
X245306Y128880D02*
X250746Y134320D01*
X244790Y128880D02*
X245306D01*
X247865Y113740D02*
X249625Y115500D01*
X265968Y126320D02*
X274100D01*
X285370Y137590D02*
X294435D01*
X244157Y128247D02*
X244790Y128880D01*
X262890Y148318D02*
Y154000D01*
X211501Y128247D02*
X244157D01*
X260633Y139200D02*
X267040D01*
X248786Y140760D02*
X253085D01*
X274100Y126320D02*
X285370Y137590D01*
X267040Y139200D02*
X275590Y147750D01*
X242846Y134820D02*
X248786Y140760D01*
X194034Y134820D02*
X242846D01*
X240385Y140760D02*
X246973Y147348D01*
X196495Y140760D02*
X240385D01*
X275590Y147750D02*
Y154000D01*
X192400Y76840D02*
Y81040D01*
X185460Y87980D02*
X192400Y81040D01*
Y76840D02*
X217170Y52070D01*
X185460Y87980D02*
Y107355D01*
X128270Y50165D02*
X185460Y107355D01*
Y112020D01*
X193620Y120180D01*
X217170Y48260D02*
Y52070D01*
X289160Y257410D02*
X290830Y259080D01*
X277730Y257410D02*
X289160D01*
X247650Y227330D02*
X277730Y257410D01*
X290830Y259080D02*
X309040Y240870D01*
X319200D01*
X338885Y149020D02*
Y179556D01*
X327025Y137160D02*
X338885Y149020D01*
X331675Y186766D02*
X338885Y179556D01*
X165100Y232410D02*
X171020Y226490D01*
X182668D01*
X183097Y226060D01*
X196850D01*
X203435Y120180D02*
X211501Y128247D01*
X193620Y120180D02*
X203435D01*
X327025Y137160D02*
X364490D01*
X368300Y140970D01*
X325120Y201930D02*
X325755D01*
X331675Y196010D01*
Y186766D02*
Y196010D01*
X300990Y66040D02*
X304800Y62230D01*
X326390D01*
X300990Y33020D02*
X319405D01*
X325755Y39370D01*
X326390D01*
X300355Y66040D02*
X300990D01*
X275992Y90403D02*
Y99598D01*
X275590Y100000D02*
X275992Y99598D01*
X128270Y49530D02*
Y50165D01*
X274955Y63500D02*
X294435Y44020D01*
Y38940D02*
X300355Y33020D01*
X300990D01*
X274320Y63500D02*
X274955D01*
X294435Y38940D02*
Y44020D01*
X262890Y74930D02*
X267765Y70055D01*
X273685Y63500D02*
X274320D01*
X267765Y69420D02*
X273685Y63500D01*
X267765Y69420D02*
Y70055D01*
X262890Y74930D02*
Y100000D01*
X267765Y36400D02*
Y37035D01*
Y36400D02*
X273685Y30480D01*
X274320D01*
X242570Y48260D02*
X256540D01*
X267765Y37035D01*
X121920Y56515D02*
X128270Y50165D01*
X121920Y56515D02*
Y74930D01*
X99060Y75565D02*
X122238Y98743D01*
X99060Y74930D02*
Y75565D01*
X122238Y98743D02*
X123507D01*
X146685Y121920D01*
X147320D01*
X92710Y22860D02*
X95250Y25400D01*
Y49530D01*
X99060Y53340D02*
Y74930D01*
X95250Y49530D02*
X99060Y53340D01*
X246973Y147348D02*
X249220D01*
X192475Y144780D02*
X196495Y140760D01*
X250190Y148318D02*
Y154000D01*
X147320Y144780D02*
X192475D01*
X162994Y136959D02*
X191895D01*
X194034Y134820D01*
X249220Y147348D02*
X250190Y148318D01*
X147955Y121920D02*
X162994Y136959D01*
X147320Y121920D02*
X147955D01*
X116840Y147320D02*
X144780D01*
X147320Y144780D01*
X82296Y129286D02*
X101219D01*
X116205Y114300D01*
X116840D01*
X66040Y66675D02*
X82296Y82931D01*
Y129286D01*
X66040Y66040D02*
Y66675D01*
X60960Y29845D02*
X66040Y34925D01*
Y66040D01*
X60960Y29210D02*
Y29845D01*
X33020Y34925D02*
X38100Y29845D01*
Y29210D02*
Y29845D01*
X33020Y34925D02*
Y66040D01*
X46990Y165100D02*
X57150Y154940D01*
X46990Y165100D02*
Y208280D01*
X49530Y205740D02*
X74930D01*
X46990Y208280D02*
X49530Y205740D01*
X81485Y232205D02*
X105410Y208280D01*
X75565Y238760D02*
X81485Y232840D01*
X105410Y208280D02*
X121920D01*
X81485Y232205D02*
Y232840D01*
X74930Y238760D02*
X75565D01*
X125730Y208280D02*
X134620Y199390D01*
X165100D01*
X121920Y208280D02*
X125730D01*
X240030Y227330D02*
X243840D01*
X198120D02*
X240030D01*
X196850Y226060D02*
X198120Y227330D01*
X319200Y240870D02*
X325120Y234950D01*
X243840Y227330D02*
X247650D01*
D36*
X243840Y201930D02*
D03*
X121920Y233680D02*
D03*
X171450Y59690D02*
D03*
X368300Y166370D02*
D03*
D37*
X243840Y227330D02*
D03*
X121920Y208280D02*
D03*
X171450Y34290D02*
D03*
X368300Y140970D02*
D03*
D38*
X57150Y154940D02*
D03*
X82296Y129286D02*
D03*
X57404Y103886D02*
D03*
D39*
X290830Y259080D02*
D03*
Y233680D02*
D03*
Y208280D02*
D03*
D40*
Y182880D02*
D03*
D41*
X242570Y48260D02*
D03*
D42*
X217170D02*
D03*
M02*
