G04*
G04 #@! TF.GenerationSoftware,Altium Limited,Altium Designer,23.11.1 (41)*
G04*
G04 Layer_Color=65535*
%FSLAX44Y44*%
%MOMM*%
G71*
G04*
G04 #@! TF.SameCoordinates,9B078A48-8F01-46FD-BB7B-D1DAEF03546D*
G04*
G04*
G04 #@! TF.FilePolarity,Positive*
G04*
G01*
G75*
%ADD10C,0.1778*%
%ADD11C,0.2500*%
%ADD12C,0.6000*%
%ADD13C,0.2000*%
%ADD14C,0.1016*%
%ADD15C,0.1270*%
%ADD16C,0.2540*%
G36*
X150114Y59690D02*
X161798D01*
X162306Y62738D01*
X163322Y65278D01*
X164592Y67056D01*
X166624Y68326D01*
X168910Y69088D01*
X171450Y69342D01*
X173990Y69088D01*
X175768Y68326D01*
X177546Y67056D01*
X179324Y65532D01*
X180340Y64008D01*
X181102Y61468D01*
Y59690D01*
X193040D01*
X191262Y61722D01*
X188976Y64770D01*
X186436Y66802D01*
X182626Y69088D01*
X176276Y70866D01*
X169164Y71374D01*
X161290Y69596D01*
X156210Y66548D01*
X151384Y62230D01*
X150114Y59690D01*
D02*
G37*
G36*
X100584Y233680D02*
X112268D01*
X112776Y236728D01*
X113792Y239268D01*
X115062Y241046D01*
X117094Y242316D01*
X119380Y243078D01*
X121920Y243332D01*
X124460Y243078D01*
X126238Y242316D01*
X128016Y241046D01*
X129794Y239522D01*
X130810Y237998D01*
X131572Y235458D01*
Y233680D01*
X143510D01*
X141732Y235712D01*
X139446Y238760D01*
X136906Y240792D01*
X133096Y243078D01*
X126746Y244856D01*
X119634Y245364D01*
X111760Y243586D01*
X106680Y240538D01*
X101854Y236220D01*
X100584Y233680D01*
D02*
G37*
G36*
X242570Y69596D02*
Y57912D01*
X245618Y57404D01*
X248158Y56388D01*
X249936Y55118D01*
X251206Y53086D01*
X251968Y50800D01*
X252222Y48260D01*
X251968Y45720D01*
X251206Y43942D01*
X249936Y42164D01*
X248412Y40386D01*
X246888Y39370D01*
X244348Y38608D01*
X242570D01*
Y26670D01*
X244602Y28448D01*
X247650Y30734D01*
X249682Y33274D01*
X251968Y37084D01*
X253746Y43434D01*
X254254Y50546D01*
X252476Y58420D01*
X249428Y63500D01*
X245110Y68326D01*
X242570Y69596D01*
D02*
G37*
G36*
X346964Y166370D02*
X358648D01*
X359156Y169418D01*
X360172Y171958D01*
X361442Y173736D01*
X363474Y175006D01*
X365760Y175768D01*
X368300Y176022D01*
X370840Y175768D01*
X372618Y175006D01*
X374396Y173736D01*
X376174Y172212D01*
X377190Y170688D01*
X377952Y168148D01*
Y166370D01*
X389890D01*
X388112Y168402D01*
X385826Y171450D01*
X383286Y173482D01*
X379476Y175768D01*
X373126Y177546D01*
X366014Y178054D01*
X358140Y176276D01*
X353060Y173228D01*
X348234Y168910D01*
X346964Y166370D01*
D02*
G37*
G36*
X265176Y201930D02*
X253492D01*
X252984Y198882D01*
X251968Y196342D01*
X250698Y194564D01*
X248666Y193294D01*
X246380Y192532D01*
X243840Y192278D01*
X241300Y192532D01*
X239522Y193294D01*
X237744Y194564D01*
X235966Y196088D01*
X234950Y197612D01*
X234188Y200152D01*
Y201930D01*
X222250D01*
X224028Y199898D01*
X226314Y196850D01*
X228854Y194818D01*
X232664Y192532D01*
X239014Y190754D01*
X246126Y190246D01*
X254000Y192024D01*
X259080Y195072D01*
X263906Y199390D01*
X265176Y201930D01*
D02*
G37*
D10*
X269240Y215498D02*
X269114Y218027D01*
X268736Y220531D01*
X268112Y222985D01*
X267246Y225364D01*
X266147Y227646D01*
X264827Y229806D01*
X263298Y231825D01*
X261575Y233681D01*
X259677Y235357D01*
X257621Y236835D01*
X255428Y238101D01*
X253120Y239142D01*
X250719Y239949D01*
X248251Y240512D01*
X245738Y240827D01*
X243207Y240890D01*
X240682Y240701D01*
X238188Y240261D01*
X235750Y239575D01*
X233393Y238650D01*
X231140Y237495D01*
X229013Y236121D01*
X227033Y234542D01*
X225221Y232774D01*
X223593Y230835D01*
X222166Y228742D01*
X220955Y226519D01*
X219972Y224185D01*
X219225Y221766D01*
X218724Y219284D01*
X218472Y216764D01*
Y214232D01*
X218724Y211712D01*
X219225Y209230D01*
X219972Y206811D01*
X220955Y204477D01*
X222166Y202253D01*
X223593Y200161D01*
X225221Y198221D01*
X227033Y196453D01*
X229013Y194875D01*
X231140Y193501D01*
X233393Y192346D01*
X235750Y191421D01*
X238188Y190735D01*
X240682Y190295D01*
X243207Y190106D01*
X245738Y190169D01*
X248251Y190484D01*
X250719Y191047D01*
X253120Y191854D01*
X255428Y192895D01*
X257621Y194161D01*
X259677Y195639D01*
X261575Y197315D01*
X263298Y199171D01*
X264827Y201190D01*
X266147Y203350D01*
X267246Y205632D01*
X268112Y208011D01*
X268736Y210465D01*
X269114Y212969D01*
X269240Y215498D01*
X147320Y220112D02*
X147194Y222641D01*
X146816Y225145D01*
X146192Y227599D01*
X145325Y229978D01*
X144227Y232260D01*
X142907Y234420D01*
X141377Y236439D01*
X139655Y238295D01*
X137757Y239971D01*
X135701Y241449D01*
X133508Y242715D01*
X131200Y243756D01*
X128799Y244563D01*
X126331Y245126D01*
X123818Y245441D01*
X121287Y245504D01*
X118762Y245315D01*
X116268Y244875D01*
X113830Y244189D01*
X111473Y243264D01*
X109220Y242109D01*
X107093Y240735D01*
X105113Y239156D01*
X103301Y237388D01*
X101673Y235449D01*
X100246Y233356D01*
X99035Y231133D01*
X98052Y228799D01*
X97305Y226380D01*
X96804Y223898D01*
X96552Y221378D01*
Y218846D01*
X96804Y216326D01*
X97305Y213845D01*
X98052Y211425D01*
X99035Y209091D01*
X100246Y206868D01*
X101673Y204776D01*
X103301Y202836D01*
X105113Y201068D01*
X107093Y199489D01*
X109220Y198115D01*
X111473Y196960D01*
X113830Y196035D01*
X116268Y195349D01*
X118762Y194909D01*
X121287Y194720D01*
X123818Y194783D01*
X126331Y195098D01*
X128799Y195661D01*
X131200Y196468D01*
X133508Y197509D01*
X135701Y198775D01*
X137757Y200254D01*
X139655Y201929D01*
X141377Y203785D01*
X142907Y205804D01*
X144227Y207964D01*
X145325Y210246D01*
X146192Y212625D01*
X146816Y215079D01*
X147194Y217583D01*
X147320Y220112D01*
X254402Y48260D02*
X254276Y50789D01*
X253899Y53293D01*
X253274Y55747D01*
X252408Y58126D01*
X251309Y60408D01*
X249989Y62568D01*
X248460Y64587D01*
X246737Y66443D01*
X244839Y68119D01*
X242783Y69597D01*
X240590Y70863D01*
X238282Y71904D01*
X235881Y72711D01*
X233413Y73274D01*
X230900Y73589D01*
X228369Y73652D01*
X225844Y73463D01*
X223350Y73023D01*
X220912Y72337D01*
X218555Y71412D01*
X216302Y70257D01*
X214175Y68883D01*
X212195Y67304D01*
X210383Y65536D01*
X208755Y63597D01*
X207328Y61504D01*
X206117Y59281D01*
X205134Y56947D01*
X204387Y54528D01*
X203886Y52046D01*
X203634Y49526D01*
Y46994D01*
X203886Y44474D01*
X204387Y41992D01*
X205134Y39573D01*
X206117Y37239D01*
X207328Y35016D01*
X208755Y32923D01*
X210382Y30984D01*
X212195Y29216D01*
X214175Y27637D01*
X216302Y26263D01*
X218555Y25108D01*
X220912Y24183D01*
X223350Y23497D01*
X225844Y23057D01*
X228369Y22868D01*
X230900Y22931D01*
X233413Y23246D01*
X235881Y23809D01*
X238282Y24616D01*
X240590Y25657D01*
X242783Y26923D01*
X244839Y28402D01*
X246737Y30077D01*
X248460Y31933D01*
X249989Y33952D01*
X251309Y36112D01*
X252408Y38394D01*
X253274Y40773D01*
X253899Y43227D01*
X254276Y45731D01*
X254402Y48260D01*
X196850Y46122D02*
X196724Y48651D01*
X196346Y51155D01*
X195722Y53609D01*
X194855Y55988D01*
X193757Y58270D01*
X192437Y60430D01*
X190907Y62449D01*
X189185Y64305D01*
X187287Y65981D01*
X185231Y67459D01*
X183038Y68725D01*
X180730Y69766D01*
X178329Y70573D01*
X175861Y71136D01*
X173348Y71451D01*
X170817Y71514D01*
X168292Y71325D01*
X165798Y70885D01*
X163360Y70199D01*
X161003Y69274D01*
X158750Y68119D01*
X156623Y66745D01*
X154643Y65167D01*
X152830Y63398D01*
X151203Y61459D01*
X149776Y59366D01*
X148565Y57143D01*
X147582Y54809D01*
X146835Y52390D01*
X146334Y49908D01*
X146082Y47388D01*
Y44856D01*
X146334Y42336D01*
X146835Y39855D01*
X147582Y37435D01*
X148565Y35101D01*
X149776Y32878D01*
X151203Y30786D01*
X152830Y28846D01*
X154643Y27078D01*
X156623Y25499D01*
X158750Y24125D01*
X161003Y22970D01*
X163360Y22045D01*
X165798Y21359D01*
X168292Y20919D01*
X170817Y20730D01*
X173348Y20793D01*
X175861Y21108D01*
X178329Y21671D01*
X180730Y22478D01*
X183038Y23519D01*
X185231Y24785D01*
X187287Y26263D01*
X189185Y27939D01*
X190907Y29795D01*
X192437Y31814D01*
X193757Y33974D01*
X194855Y36256D01*
X195722Y38635D01*
X196346Y41089D01*
X196724Y43593D01*
X196850Y46122D01*
X393700Y152802D02*
X393574Y155331D01*
X393196Y157835D01*
X392572Y160289D01*
X391706Y162668D01*
X390607Y164950D01*
X389286Y167110D01*
X387757Y169129D01*
X386035Y170985D01*
X384137Y172661D01*
X382081Y174139D01*
X379888Y175405D01*
X377580Y176446D01*
X375179Y177253D01*
X372711Y177816D01*
X370198Y178131D01*
X367667Y178194D01*
X365142Y178005D01*
X362648Y177565D01*
X360210Y176879D01*
X357853Y175954D01*
X355600Y174799D01*
X353473Y173425D01*
X351493Y171847D01*
X349680Y170079D01*
X348053Y168139D01*
X346626Y166047D01*
X345415Y163823D01*
X344432Y161489D01*
X343685Y159070D01*
X343184Y156588D01*
X342932Y154068D01*
Y151536D01*
X343184Y149016D01*
X343685Y146535D01*
X344432Y144115D01*
X345415Y141782D01*
X346626Y139558D01*
X348053Y137465D01*
X349680Y135526D01*
X351493Y133758D01*
X353473Y132179D01*
X355600Y130805D01*
X357853Y129650D01*
X360210Y128725D01*
X362648Y128039D01*
X365142Y127599D01*
X367667Y127410D01*
X370198Y127473D01*
X372711Y127788D01*
X375179Y128351D01*
X377580Y129158D01*
X379888Y130199D01*
X382081Y131465D01*
X384137Y132943D01*
X386035Y134619D01*
X387757Y136475D01*
X389286Y138494D01*
X390607Y140654D01*
X391706Y142936D01*
X392572Y145315D01*
X393196Y147769D01*
X393574Y150273D01*
X393700Y152802D01*
X259080Y224790D02*
Y229870D01*
X256540Y227330D02*
X261620D01*
X106680Y205740D02*
Y210820D01*
X104140Y208280D02*
X109220D01*
X214630Y63500D02*
X219710D01*
X217170Y60960D02*
Y66040D01*
X156210Y31750D02*
Y36830D01*
X153670Y34290D02*
X158750D01*
X353060Y138430D02*
Y143510D01*
X350520Y140970D02*
X355600D01*
D11*
X285090Y154000D02*
X283215Y155083D01*
Y152917D01*
X285090Y154000D01*
D12*
X273490Y132500D02*
X272360Y134846D01*
X269822Y135425D01*
X267787Y133802D01*
Y131198D01*
X269822Y129575D01*
X272360Y130154D01*
X273490Y132500D01*
D13*
X278130Y195580D02*
X303530D01*
X278130Y170180D02*
X303530D01*
X278130D02*
Y271780D01*
X303530Y170180D02*
Y271780D01*
X278130D02*
X303530D01*
X194490Y142500D02*
X280490D01*
X194490Y111500D02*
X280490D01*
Y142500D01*
X194490Y111500D02*
Y142500D01*
D14*
X157480Y208026D02*
Y223774D01*
X172720Y208026D02*
Y223774D01*
X67310Y214376D02*
Y230124D01*
X82550Y214376D02*
Y230124D01*
X203200Y210312D02*
Y218948D01*
X190500Y210312D02*
Y218948D01*
X40640Y215392D02*
Y224028D01*
X53340Y215392D02*
Y224028D01*
X367030Y53086D02*
Y68834D01*
X351790Y53086D02*
Y68834D01*
X382270Y53086D02*
Y68834D01*
X397510Y53086D02*
Y68834D01*
X106172Y81280D02*
X114808D01*
X106172Y68580D02*
X114808D01*
X266700Y39116D02*
Y54864D01*
X281940Y39116D02*
Y54864D01*
X101346Y15240D02*
X117094D01*
X101346Y30480D02*
X117094D01*
X308610Y41656D02*
Y57404D01*
X293370Y41656D02*
Y57404D01*
X103886Y57150D02*
X119634D01*
X103886Y41910D02*
X119634D01*
X140970Y129032D02*
Y137668D01*
X153670Y129032D02*
Y137668D01*
X332740Y210566D02*
Y226314D01*
X317500Y210566D02*
Y226314D01*
X332740Y46482D02*
Y55118D01*
X320040Y46482D02*
Y55118D01*
X109220Y122936D02*
Y138684D01*
X124460Y122936D02*
Y138684D01*
X334010Y145796D02*
Y161544D01*
X318770Y145796D02*
Y161544D01*
X293370Y126492D02*
Y135128D01*
X306070Y126492D02*
Y135128D01*
X41656Y73660D02*
X57404D01*
X41656Y58420D02*
X57404D01*
X45212Y22860D02*
X53848D01*
X45212Y35560D02*
X53848D01*
D15*
X174752Y190754D02*
Y241046D01*
X155194D02*
X174752D01*
X155194Y190754D02*
Y241046D01*
Y190754D02*
X174752D01*
X84582Y197104D02*
Y247396D01*
X65024D02*
X84582D01*
X65024Y197104D02*
Y247396D01*
Y197104D02*
X84582D01*
X188468Y195072D02*
X205486D01*
X188468D02*
Y233934D01*
X205486D01*
Y195072D02*
Y233934D01*
X38354Y239268D02*
X55372D01*
Y200406D02*
Y239268D01*
X38354Y200406D02*
X55372D01*
X38354D02*
Y239268D01*
X349758Y35814D02*
Y86106D01*
Y35814D02*
X369316D01*
Y86106D01*
X349758D02*
X369316D01*
X399542Y35814D02*
Y86106D01*
X379984D02*
X399542D01*
X379984Y35814D02*
Y86106D01*
Y35814D02*
X399542D01*
X130048Y66548D02*
Y83566D01*
X91186Y66548D02*
X130048D01*
X91186D02*
Y83566D01*
X130048D01*
X283972Y21844D02*
Y72136D01*
X264414D02*
X283972D01*
X264414Y21844D02*
Y72136D01*
Y21844D02*
X283972D01*
X84074Y32512D02*
X134366D01*
X84074Y12954D02*
Y32512D01*
Y12954D02*
X134366D01*
Y32512D01*
X291338Y24384D02*
Y74676D01*
Y24384D02*
X310896D01*
Y74676D01*
X291338D02*
X310896D01*
X86614Y39878D02*
X136906D01*
Y59436D01*
X86614D02*
X136906D01*
X86614Y39878D02*
Y59436D01*
X138684Y152908D02*
X155702D01*
Y114046D02*
Y152908D01*
X138684Y114046D02*
X155702D01*
X138684D02*
Y152908D01*
X315468Y193294D02*
Y243586D01*
Y193294D02*
X335026D01*
Y243586D01*
X315468D02*
X335026D01*
X318008Y31242D02*
X335026D01*
X318008D02*
Y70104D01*
X335026D01*
Y31242D02*
Y70104D01*
X126492Y105664D02*
Y155956D01*
X106934D02*
X126492D01*
X106934Y105664D02*
Y155956D01*
Y105664D02*
X126492D01*
X316738Y128524D02*
Y178816D01*
Y128524D02*
X336296D01*
Y178816D01*
X316738D02*
X336296D01*
X291084Y150368D02*
X308102D01*
Y111506D02*
Y150368D01*
X291084Y111506D02*
X308102D01*
X291084D02*
Y150368D01*
X24384Y56388D02*
X74676D01*
Y75946D01*
X24384D02*
X74676D01*
X24384Y56388D02*
Y75946D01*
X29972Y20574D02*
Y37592D01*
X68834D01*
Y20574D02*
Y37592D01*
X29972Y20574D02*
X68834D01*
D16*
X230375Y262124D02*
X227836Y264663D01*
X222757D01*
X220218Y262124D01*
Y251967D01*
X222757Y249428D01*
X227836D01*
X230375Y251967D01*
X245610Y249428D02*
X235453D01*
X245610Y259585D01*
Y262124D01*
X243071Y264663D01*
X237992D01*
X235453Y262124D01*
X289811Y295651D02*
X284732D01*
X287271D01*
Y282955D01*
X284732Y280416D01*
X282193D01*
X279654Y282955D01*
X294889Y280416D02*
Y295651D01*
X302507D01*
X305046Y293112D01*
Y288034D01*
X302507Y285494D01*
X294889D01*
X310124Y293112D02*
X312663Y295651D01*
X317742D01*
X320281Y293112D01*
Y290573D01*
X315203Y285494D01*
Y282955D02*
Y280416D01*
X157226Y249428D02*
Y264663D01*
X164844D01*
X167383Y262124D01*
Y257045D01*
X164844Y254506D01*
X157226D01*
X162304D02*
X167383Y249428D01*
X182618D02*
X172461D01*
X182618Y259585D01*
Y262124D01*
X180079Y264663D01*
X175000D01*
X172461Y262124D01*
X66802Y255524D02*
Y270759D01*
X74419D01*
X76959Y268220D01*
Y263141D01*
X74419Y260602D01*
X66802D01*
X71880D02*
X76959Y255524D01*
X82037D02*
X87115D01*
X84576D01*
Y270759D01*
X82037Y268220D01*
X108455Y266696D02*
X105915Y269235D01*
X100837D01*
X98298Y266696D01*
Y256539D01*
X100837Y254000D01*
X105915D01*
X108455Y256539D01*
X113533Y254000D02*
X118611D01*
X116072D01*
Y269235D01*
X113533Y266696D01*
X200403Y255012D02*
X197864Y257551D01*
X192785D01*
X190246Y255012D01*
Y244855D01*
X192785Y242316D01*
X197864D01*
X200403Y244855D01*
X213099Y242316D02*
Y257551D01*
X205481Y249933D01*
X215638D01*
X50543Y260092D02*
X48004Y262631D01*
X42925D01*
X40386Y260092D01*
Y249935D01*
X42925Y247396D01*
X48004D01*
X50543Y249935D01*
X55621Y260092D02*
X58160Y262631D01*
X63239D01*
X65778Y260092D01*
Y257553D01*
X63239Y255014D01*
X60699D01*
X63239D01*
X65778Y252474D01*
Y249935D01*
X63239Y247396D01*
X58160D01*
X55621Y249935D01*
X351790Y94488D02*
Y109723D01*
X359408D01*
X361947Y107184D01*
Y102106D01*
X359408Y99566D01*
X351790D01*
X356868D02*
X361947Y94488D01*
X367025D02*
X372103D01*
X369564D01*
Y109723D01*
X367025Y107184D01*
X389878Y94488D02*
X379721D01*
X389878Y104645D01*
Y107184D01*
X387338Y109723D01*
X382260D01*
X379721Y107184D01*
X381762Y94488D02*
Y109723D01*
X389380D01*
X391919Y107184D01*
Y102106D01*
X389380Y99566D01*
X381762D01*
X386840D02*
X391919Y94488D01*
X396997D02*
X402075D01*
X399536D01*
Y109723D01*
X396997Y107184D01*
X409693Y94488D02*
X414771D01*
X412232D01*
Y109723D01*
X409693Y107184D01*
X215389Y94992D02*
X212850Y97531D01*
X207771D01*
X205232Y94992D01*
Y84835D01*
X207771Y82296D01*
X212850D01*
X215389Y84835D01*
X220467Y97531D02*
X230624D01*
Y94992D01*
X220467Y84835D01*
Y82296D01*
X103375Y104644D02*
X100836Y107183D01*
X95757D01*
X93218Y104644D01*
Y94487D01*
X95757Y91948D01*
X100836D01*
X103375Y94487D01*
X118610Y107183D02*
X113531Y104644D01*
X108453Y99565D01*
Y94487D01*
X110992Y91948D01*
X116071D01*
X118610Y94487D01*
Y97026D01*
X116071Y99565D01*
X108453D01*
X157731Y92706D02*
X155191Y95245D01*
X150113D01*
X147574Y92706D01*
Y82549D01*
X150113Y80010D01*
X155191D01*
X157731Y82549D01*
X172966Y95245D02*
X162809D01*
Y87627D01*
X167887Y90167D01*
X170427D01*
X172966Y87627D01*
Y82549D01*
X170427Y80010D01*
X165348D01*
X162809Y82549D01*
X266446Y80264D02*
Y95499D01*
X274063D01*
X276603Y92960D01*
Y87881D01*
X274063Y85342D01*
X266446D01*
X271524D02*
X276603Y80264D01*
X289299D02*
Y95499D01*
X281681Y87881D01*
X291838D01*
X86106Y40640D02*
Y55875D01*
X93723D01*
X96263Y53336D01*
Y48257D01*
X93723Y45718D01*
X86106D01*
X91184D02*
X96263Y40640D01*
X101341Y53336D02*
X103880Y55875D01*
X108959D01*
X111498Y53336D01*
Y50797D01*
X108959Y48257D01*
X106419D01*
X108959D01*
X111498Y45718D01*
Y43179D01*
X108959Y40640D01*
X103880D01*
X101341Y43179D01*
X293370Y82804D02*
Y98039D01*
X300987D01*
X303527Y95500D01*
Y90421D01*
X300987Y87882D01*
X293370D01*
X298448D02*
X303527Y82804D01*
X318762Y98039D02*
X308605D01*
Y90421D01*
X313683Y92961D01*
X316223D01*
X318762Y90421D01*
Y85343D01*
X316223Y82804D01*
X311144D01*
X308605Y85343D01*
X194310Y188209D02*
X199388D01*
X196849D01*
Y172974D01*
X194310D01*
X199388D01*
X217163Y185670D02*
X214623Y188209D01*
X209545D01*
X207006Y185670D01*
Y175513D01*
X209545Y172974D01*
X214623D01*
X217163Y175513D01*
X222241Y172974D02*
X227319D01*
X224780D01*
Y188209D01*
X222241Y185670D01*
X88646Y67564D02*
Y82799D01*
X96264D01*
X98803Y80260D01*
Y75181D01*
X96264Y72642D01*
X88646D01*
X93724D02*
X98803Y67564D01*
X114038Y82799D02*
X108959Y80260D01*
X103881Y75181D01*
Y70103D01*
X106420Y67564D01*
X111499D01*
X114038Y70103D01*
Y72642D01*
X111499Y75181D01*
X103881D01*
X150619Y173732D02*
X148080Y176271D01*
X143001D01*
X140462Y173732D01*
Y163575D01*
X143001Y161036D01*
X148080D01*
X150619Y163575D01*
X155697Y173732D02*
X158236Y176271D01*
X163315D01*
X165854Y173732D01*
Y171193D01*
X163315Y168654D01*
X165854Y166114D01*
Y163575D01*
X163315Y161036D01*
X158236D01*
X155697Y163575D01*
Y166114D01*
X158236Y168654D01*
X155697Y171193D01*
Y173732D01*
X158236Y168654D02*
X163315D01*
X317246Y251968D02*
Y267203D01*
X324864D01*
X327403Y264664D01*
Y259585D01*
X324864Y257046D01*
X317246D01*
X322324D02*
X327403Y251968D01*
X332481Y267203D02*
X342638D01*
Y264664D01*
X332481Y254507D01*
Y251968D01*
X329943Y90928D02*
X327403Y93467D01*
X322325D01*
X319786Y90928D01*
Y80771D01*
X322325Y78232D01*
X327403D01*
X329943Y80771D01*
X335021D02*
X337560Y78232D01*
X342639D01*
X345178Y80771D01*
Y90928D01*
X342639Y93467D01*
X337560D01*
X335021Y90928D01*
Y88389D01*
X337560Y85850D01*
X345178D01*
X108966Y164084D02*
Y179319D01*
X116583D01*
X119123Y176780D01*
Y171702D01*
X116583Y169162D01*
X108966D01*
X114044D02*
X119123Y164084D01*
X124201Y176780D02*
X126740Y179319D01*
X131819D01*
X134358Y176780D01*
Y174241D01*
X131819Y171702D01*
X134358Y169162D01*
Y166623D01*
X131819Y164084D01*
X126740D01*
X124201Y166623D01*
Y169162D01*
X126740Y171702D01*
X124201Y174241D01*
Y176780D01*
X126740Y171702D02*
X131819D01*
X318770Y186944D02*
Y202179D01*
X326387D01*
X328927Y199640D01*
Y194562D01*
X326387Y192022D01*
X318770D01*
X323848D02*
X328927Y186944D01*
X334005Y189483D02*
X336544Y186944D01*
X341623D01*
X344162Y189483D01*
Y199640D01*
X341623Y202179D01*
X336544D01*
X334005Y199640D01*
Y197101D01*
X336544Y194562D01*
X344162D01*
X354835Y199386D02*
X352295Y201925D01*
X347217D01*
X344678Y199386D01*
Y189229D01*
X347217Y186690D01*
X352295D01*
X354835Y189229D01*
X359913Y186690D02*
X364991D01*
X362452D01*
Y201925D01*
X359913Y199386D01*
X372609D02*
X375148Y201925D01*
X380227D01*
X382766Y199386D01*
Y189229D01*
X380227Y186690D01*
X375148D01*
X372609Y189229D01*
Y199386D01*
X303019Y171192D02*
X300480Y173731D01*
X295401D01*
X292862Y171192D01*
Y161035D01*
X295401Y158496D01*
X300480D01*
X303019Y161035D01*
X308097Y158496D02*
X313175D01*
X310636D01*
Y173731D01*
X308097Y171192D01*
X320793Y158496D02*
X325871D01*
X323332D01*
Y173731D01*
X320793Y171192D01*
X26162Y84328D02*
Y99563D01*
X33779D01*
X36319Y97024D01*
Y91945D01*
X33779Y89406D01*
X26162D01*
X31240D02*
X36319Y84328D01*
X41397D02*
X46475D01*
X43936D01*
Y99563D01*
X41397Y97024D01*
X54093D02*
X56632Y99563D01*
X61711D01*
X64250Y97024D01*
Y86867D01*
X61711Y84328D01*
X56632D01*
X54093Y86867D01*
Y97024D01*
X41907Y58416D02*
X39367Y60955D01*
X34289D01*
X31750Y58416D01*
Y48259D01*
X34289Y45720D01*
X39367D01*
X41907Y48259D01*
X46985Y45720D02*
X52063D01*
X49524D01*
Y60955D01*
X46985Y58416D01*
X69838Y45720D02*
X59681D01*
X69838Y55877D01*
Y58416D01*
X67298Y60955D01*
X62220D01*
X59681Y58416D01*
M02*
